# xmcd
# 
# Track frame offsets:
#     150
#     15185
#     29828
#     48065
#     64955
#     79905
#     101450
#     113923
#     129455
#     147713
#     166303
#     180615
#     200693
#     216885
#     231723
#     250188
# 
# Disc length: 3527
# 
# Revision: 1
# Processed by: cddbd v1.5.2PL0 Copyright (c) Steve Scherf et al.
# Submitted via: BonkEnc v1.0.15
# 
DISCID=ea0dc510
DTITLE=藤山一郎 - 藤山一郎全曲集
DYEAR=1992
DGENRE=JPop
TTITLE0=酒は涙か溜息か
TTITLE1=丘を越えて
TTITLE2=影を慕いて
TTITLE3=東京ラプソディ
TTITLE4=青い背広で
TTITLE5=青春日記
TTITLE6=懐かしのボレロ
TTITLE7=なつかしの歌声
TTITLE8=三日月娘
TTITLE9=夢淡き東京
TTITLE10=青い山脈
TTITLE11=長崎の鐘
TTITLE12=花の素顔
TTITLE13=山のかなたに
TTITLE14=ニコライの鐘
TTITLE15=丘は花ざかり
EXTD=YEAR: 1992
EXTT0=
EXTT1=
EXTT2=
EXTT3=
EXTT4=
EXTT5=
EXTT6=
EXTT7=
EXTT8=
EXTT9=
EXTT10=
EXTT11=
EXTT12=
EXTT13=
EXTT14=
EXTT15=
PLAYORDER=
